<svg xmlns="http://www.w3.org/2000/svg" viewBox="0 0 58.78 58.75" width="50px">
	<defs>
		<style>
			.cls-1{fill:#fff;}
		</style>
	</defs>
	<g id="Layer_2" data-name="Layer 2">
		<g id="Layer_1-2" data-name="Layer 1">
			<path class="cls-1" d="M58.77,1.11a1.07,1.07,0,0,0-.06-.29s0-.08,0-.12a1.31,1.31,0,0,0-.24-.37,1.47,1.47,0,0,0-.37-.24l-.12,0a1,1,0,0,0-.3,0h-.13a1,1,0,0,0-.34.06l-.08,0h0L.74,24.56A1.23,1.23,0,0,0,.1,26.18a1.17,1.17,0,0,0,.55.59L21.14,37.61,32,58.09a1.23,1.23,0,0,0,1.08.66h0A1.24,1.24,0,0,0,34.2,58L58.68,1.69h0a.26.26,0,0,0,0-.08,1,1,0,0,0,.06-.34A.75.75,0,0,0,58.77,1.11ZM4.06,25.78,52.17,4.86,21.83,35.18ZM33,54.7,23.57,36.92,53.89,6.59Z" />
		</g>
	</g>
</svg>
